name Walk8.mot
datacolumns 19
datarows 10
range 1.84600000 1.85500000
endheader

                time	   L_ground_force_vx	   L_ground_force_vy	   L_ground_force_vz	   L_ground_force_px	   L_ground_force_py	   L_ground_force_pz	   R_ground_force_vx	   R_ground_force_vy	   R_ground_force_vz	   R_ground_force_px	   R_ground_force_py	   R_ground_force_pz	   L_ground_torque_x	   L_ground_torque_y	   L_ground_torque_z	   R_ground_torque_x	   R_ground_torque_y	   R_ground_torque_z	
          1.84600000	         -3.82125177	        516.23663068	         15.87308439	          0.44684972	          0.00000000	          0.21793374	          0.00000000	          0.00000000	          0.00000000	          0.00000000	          0.00000000	          0.00000000	          0.00000000	         -2.31915037	          0.00000000	          0.00000000	          0.00000000	          0.00000000	
          1.84700000	         -3.42380185	        515.48686598	         15.99831806	          0.44714729	          0.00000000	          0.21789233	          0.00000000	          0.00000000	          0.00000000	          0.00000000	          0.00000000	          0.00000000	          0.00000000	         -2.32054945	          0.00000000	          0.00000000	          0.00000000	          0.00000000	
          1.84800000	         -3.02633292	        514.72821258	         16.13938791	          0.44743257	          0.00000000	          0.21780711	          0.00000000	          0.00000000	          0.00000000	          0.00000000	          0.00000000	          0.00000000	          0.00000000	         -2.32867229	          0.00000000	          0.00000000	          0.00000000	          0.00000000	
          1.84900000	         -2.63678849	        513.93590983	         16.29584952	          0.44771010	          0.00000000	          0.21768284	          0.00000000	          0.00000000	          0.00000000	          0.00000000	          0.00000000	          0.00000000	          0.00000000	         -2.34903542	          0.00000000	          0.00000000	          0.00000000	          0.00000000	
          1.85000000	         -2.25868152	        513.16397845	         16.46878877	          0.44801934	          0.00000000	          0.21755958	          0.00000000	          0.00000000	          0.00000000	          0.00000000	          0.00000000	          0.00000000	          0.00000000	         -2.38213149	          0.00000000	          0.00000000	          0.00000000	          0.00000000	
          1.85100000	         -1.88955775	        512.48933958	         16.66649638	          0.44841414	          0.00000000	          0.21747335	          0.00000000	          0.00000000	          0.00000000	          0.00000000	          0.00000000	          0.00000000	          0.00000000	         -2.42092572	          0.00000000	          0.00000000	          0.00000000	          0.00000000	
          1.85200000	         -1.53030853	        511.93463462	         16.89791722	          0.44891406	          0.00000000	          0.21741901	          0.00000000	          0.00000000	          0.00000000	          0.00000000	          0.00000000	          0.00000000	          0.00000000	         -2.45531344	          0.00000000	          0.00000000	          0.00000000	          0.00000000	
          1.85300000	         -1.18620551	        511.46494870	         17.16075947	          0.44949169	          0.00000000	          0.21736189	          0.00000000	          0.00000000	          0.00000000	          0.00000000	          0.00000000	          0.00000000	          0.00000000	         -2.47779745	          0.00000000	          0.00000000	          0.00000000	          0.00000000	
          1.85400000	         -0.85666674	        511.02771734	         17.44247381	          0.45010989	          0.00000000	          0.21727856	          0.00000000	          0.00000000	          0.00000000	          0.00000000	          0.00000000	          0.00000000	          0.00000000	         -2.48554942	          0.00000000	          0.00000000	          0.00000000	          0.00000000	
          1.85500000	         -0.53429384	        510.58267854	         17.73030690	          0.45073479	          0.00000000	          0.21717537	          0.00000000	          0.00000000	          0.00000000	          0.00000000	          0.00000000	          0.00000000	          0.00000000	         -2.48214141	          0.00000000	          0.00000000	          0.00000000	          0.00000000	
